<?xml version="1.0" encoding="UTF-8"?>
<svg width="20px" height="20px" viewBox="0 0 20 20" version="1.1" xmlns="http://www.w3.org/2000/svg" xmlns:xlink="http://www.w3.org/1999/xlink">
    <title>content_icon_03</title>
    <g id="前台" stroke="none" stroke-width="1" fill="none" fill-rule="evenodd">
        <g id="1节点管理" transform="translate(-800.000000, -173.000000)">
            <g id="content_icon_03" transform="translate(800.000000, 173.000000)">
                <path d="M10,0 C4.47714286,0 0,4.47714286 0,10 C0,15.5228571 4.47714286,20 10,20 C15.5228571,20 20,15.5228571 20,10 C20,4.47714286 15.5228571,0 10,0 Z" id="路径" fill="#4E80F8" fill-rule="nonzero"></path>
                <g id="编组" transform="translate(5.000000, 5.000000)" stroke="#FFFFFF">
                    <g id="编组-2" transform="translate(0.501862, 0.000000)">
                        <path d="M3,0 L7.5,0 C8.32842712,-1.52179594e-16 9,0.671572875 9,1.5 L9,7 C9,7.55228475 8.55228475,8 8,8 L3,8 C2.44771525,8 2,7.55228475 2,7 L2,1 C2,0.44771525 2.44771525,1.01453063e-16 3,0 Z" id="矩形备份-2"></path>
                        <rect id="矩形" fill="#4E80F8" x="0" y="2" width="7" height="8" rx="1"></rect>
                    </g>
                </g>
            </g>
        </g>
    </g>
</svg>