<?xml version="1.0" encoding="UTF-8"?>
<svg width="14px" height="14px" viewBox="0 0 14 14" version="1.1" xmlns="http://www.w3.org/2000/svg" xmlns:xlink="http://www.w3.org/1999/xlink">
    <title>形状结合</title>
    <g id="前台" stroke="none" stroke-width="1" fill="none" fill-rule="evenodd">
        <g id="3节点连接" transform="translate(-858.000000, -319.000000)" fill="#DADBDE">
            <path d="M865,319 C868.865993,319 872,322.134007 872,326 C872,329.865993 868.865993,333 865,333 C861.134007,333 858,329.865993 858,326 C858,322.134007 861.134007,319 865,319 Z M864.93,328.13 C864.71,328.13 864.53,328.2 864.38,328.34 C864.23,328.48 864.16,328.66 864.16,328.88 C864.16,329.1 864.23,329.28 864.38,329.42 C864.53,329.56 864.71,329.64 864.93,329.64 C865.15,329.64 865.33,329.57 865.48,329.43 C865.63,329.29 865.71,329.1 865.71,328.88 C865.71,328.66 865.63,328.48 865.49,328.34 C865.34,328.2 865.15,328.13 864.93,328.13 Z M865.11,322.36 C864.37,322.36 863.79,322.57 863.36,322.99 C862.92,323.41 862.71,323.99 862.71,324.73 L863.85,324.73 C863.85,324.31 863.93,323.98 864.1,323.75 C864.29,323.47 864.6,323.34 865.04,323.34 C865.38,323.34 865.65,323.43 865.84,323.62 C866.02,323.81 866.12,324.07 866.12,324.4 C866.12,324.65 866.03,324.89 865.85,325.11 L865.73,325.25 C865.08,325.83 864.69,326.25 864.56,326.52 C864.42,326.79 864.36,327.12 864.36,327.5 L864.36,327.64 L865.51,327.64 L865.51,327.5 C865.51,327.26 865.56,327.05 865.66,326.85 C865.75,326.67 865.88,326.5 866.06,326.35 C866.54,325.93 866.83,325.66 866.92,325.56 C867.16,325.24 867.29,324.83 867.29,324.33 C867.29,323.72 867.09,323.24 866.69,322.89 C866.29,322.53 865.76,322.36 865.11,322.36 Z" id="形状结合"></path>
        </g>
    </g>
</svg>