<?xml version="1.0" encoding="UTF-8"?>
<svg width="20px" height="20px" viewBox="0 0 20 20" version="1.1" xmlns="http://www.w3.org/2000/svg" xmlns:xlink="http://www.w3.org/1999/xlink">
    <title>content_icon_02</title>
    <g id="前台" stroke="none" stroke-width="1" fill="none" fill-rule="evenodd">
        <g id="1节点管理" transform="translate(-526.000000, -173.000000)" fill="#4E80F8" fill-rule="nonzero">
            <path d="M536,173 C530.477143,173 526,177.477143 526,183 C526,188.522857 530.477143,193 536,193 C541.522857,193 546,188.522857 546,183 C546,177.477143 541.522857,173 536,173 Z M540.578163,177.775714 C540.792011,177.823847 540.95901,177.990846 541.007143,178.204694 C541.055298,178.418503 540.975915,178.640918 540.803265,178.775918 L534.395918,185.182449 C534.192449,185.375918 533.873469,185.375918 533.67,185.182449 L533.67,185.183265 C533.524083,184.96329 533.524083,184.677322 533.67,184.457347 L540.007143,177.979388 C540.142151,177.806881 540.364459,177.727588 540.578163,177.775714 L540.578163,177.775714 Z M541.4,186.416939 C541.399592,187.51551 540.508776,188.405918 539.410204,188.405918 L532.574898,188.405918 C531.476327,188.40551 530.585918,187.514694 530.585918,186.416122 L530.585918,179.581633 C530.585918,178.483061 531.476327,177.592245 532.574898,177.591837 L536.415918,177.591837 C536.561429,177.574898 536.707347,177.620612 536.817143,177.717347 C536.927137,177.814139 536.99086,177.953083 536.992449,178.099592 C537.000408,178.254286 536.945918,178.405714 536.84102,178.519796 C536.7362,178.633887 536.589946,178.701095 536.435102,178.706327 L532.57551,178.706327 C532.094082,178.711429 531.704898,179.100204 531.699388,179.581633 L531.699388,186.446531 C531.704898,186.927959 532.094082,187.316939 532.57551,187.321837 L539.420204,187.321837 C539.901429,187.316327 540.290204,186.927551 540.29551,186.446531 L540.29551,182.665714 C540.293061,182.51102 540.352653,182.361837 540.461224,182.251429 C540.569796,182.141224 540.717959,182.07898 540.872857,182.07898 L540.872857,182.077347 C541.161633,182.077347 541.379796,182.346735 541.4,182.704286 L541.4,186.416939 L541.4,186.416939 Z" id="content_icon_02"></path>
        </g>
    </g>
</svg>