<?xml version="1.0" encoding="UTF-8"?>
<svg width="18px" height="20px" viewBox="0 0 18 20" version="1.1" xmlns="http://www.w3.org/2000/svg" xmlns:xlink="http://www.w3.org/1999/xlink">
    <title>title_icon_01</title>
    <g id="前台" stroke="none" stroke-width="1" fill="none" fill-rule="evenodd">
        <g id="1节点管理" transform="translate(-220.000000, -78.000000)" fill-rule="nonzero">
            <g id="title_icon_01" transform="translate(220.000000, 78.000000)">
                <path d="M9.12540857,7.35718592 C8.39073729,7.35718592 7.72548655,7.65321485 7.24398185,8.1321879 C6.76343947,8.61020371 6.46598295,9.27051065 6.46598295,10 C6.46598295,10.7294997 6.7634351,11.3898045 7.24397358,11.8678164 C7.72547916,12.3467904 8.39073357,12.6428141 9.12540857,12.6428141 C9.86005658,12.6428141 10.5252715,12.3467974 11.0067461,11.8678339 C11.4872671,11.389819 11.7846995,10.7295066 11.7846995,10 C11.7846995,9.27050378 11.4872627,8.61018924 11.0067378,8.13217044 C10.5252641,7.65320785 9.86005286,7.35718592 9.12540857,7.35718592 Z" id="路径" stroke="#4E576B"></path>
                <path d="M8.99992096,0.5 C8.35308398,0.5 7.76760398,0.763625998 7.34376037,1.18951802 C6.91904214,1.6162889 6.65655909,2.20592644 6.65655909,2.85710371 L6.65655909,3.7876105 C6.3302868,3.91360386 6.00909523,4.06521885 5.69678031,4.24651324 C5.3838526,4.42816335 5.09182566,4.63200419 4.81997926,4.85387475 L4.0146612,4.38671813 C3.4546802,4.06184108 2.81672019,3.99570606 2.23790466,4.15154352 C1.65848696,4.30754311 1.13850808,4.68587804 0.814898425,5.24907911 C0.490785666,5.81323945 0.424980213,6.45605218 0.580496056,7.03922683 C0.735844576,7.62177404 1.11213312,8.14497634 1.67305364,8.47037529 L2.47718244,8.93703591 C2.36414044,9.63518871 2.36094642,10.3534065 2.47526483,11.0641919 L1.67300253,11.5295454 C1.11212186,11.8549662 0.735819848,12.3781943 0.580476931,12.9607681 C0.424974846,13.5439387 0.490793004,14.186739 0.814941167,14.7509426 C1.13853334,15.314063 1.65852346,15.6923787 2.23794885,15.8483803 C2.81676703,16.0042185 3.45472954,15.9381103 4.01469131,15.613282 L4.81940953,15.1465314 C5.37520122,15.6026965 5.99714487,15.9595411 6.65658938,16.2106732 L6.65658938,17.1427745 C6.65658938,17.7939669 6.9191013,18.3836298 7.34384381,18.810425 C7.76771592,19.2363457 8.35322627,19.5 9.00007244,19.5 C9.64689383,19.5 10.2323685,19.2363523 10.6562126,18.8104416 C11.0809399,18.3836434 11.3434343,17.7939734 11.3434343,17.1427745 L11.3434343,16.2119188 C11.6698285,16.08651 11.991032,15.9345221 12.3035465,15.7533461 C12.6161565,15.5718802 12.9084278,15.3679275 13.180088,15.1460655 L13.9853269,15.613314 C14.5452459,15.9381478 15.1831928,16.0042595 15.7619983,15.848426 C16.3414448,15.6924199 16.8614516,15.3140777 17.1850743,14.7509042 C17.5092019,14.1867237 17.5750278,13.5439089 17.4195243,12.9607282 C17.2641833,12.3781571 16.8878831,11.8549352 16.3269483,11.5294903 L15.5227762,11.0630701 C15.6358933,10.3648876 15.6390912,9.64640454 15.5246934,8.93587614 L16.3269717,8.4704657 C16.8878704,8.14503446 17.2641704,7.6217945 17.4195145,7.03921659 C17.5750175,6.45604224 17.5092045,5.81324305 17.185057,5.24906577 C16.8614622,4.68591895 16.3414584,4.30758074 15.7620134,4.15157503 C15.1832032,3.99574022 14.5452477,4.06185113 13.9852893,4.38670785 L13.1806013,4.85351623 C12.6248054,4.39738369 12.0028659,4.04022372 11.343404,3.78950078 L11.343404,2.85710371 C11.343404,2.20593621 11.0808987,1.61630923 10.6561661,1.1895421 C10.2322911,0.763636653 9.64677352,0.5 8.99992096,0.5 Z" id="路径" stroke="#4E576B"></path>
                <path d="M2.22250086,5.96358524 C2.18075849,6.03303857 2.13989137,6.10319518 2.10047178,6.17385407 L2.22250086,5.96358524 L2.22250086,5.96358524 Z" id="路径" fill="#383F50"></path>
            </g>
        </g>
    </g>
</svg>