<?xml version="1.0" encoding="UTF-8"?>
<svg width="20px" height="20px" viewBox="0 0 20 20" version="1.1" xmlns="http://www.w3.org/2000/svg" xmlns:xlink="http://www.w3.org/1999/xlink">
    <title>title_icon_02</title>
    <g id="前台" stroke="none" stroke-width="1" fill="none" fill-rule="evenodd">
        <g id="3节点连接" transform="translate(-220.000000, -78.000000)" fill="#383F50" fill-rule="nonzero">
            <g id="title_icon_02" transform="translate(220.000000, 78.000000)">
                <path d="M12.6349929,1.2906828 L10.1309074,3.87180826 C9.84479463,4.15902691 9.84479463,4.6609391 10.1309074,4.94767746 C10.4165409,5.23441581 10.8464288,5.23441581 11.1325416,4.94767746 L13.6366271,2.3660717 C14.7810781,1.21863799 16.5696422,1.21863799 17.7126554,2.3660717 C18.8551894,3.5135054 18.8571064,5.37754483 17.7126554,6.52257704 L13.6337516,10.6810036 C12.4893007,11.8289176 10.7007366,11.8289176 9.55820263,10.6810036 C9.27208989,10.3947455 8.84268115,10.3947455 8.55656841,10.6810036 C8.27045567,10.9682222 8.27045567,11.4701344 8.55656841,11.7568728 C10.2018365,13.4777832 12.9901178,13.4777832 14.6358651,11.7568728 L18.7114141,7.60036743 C20.4290491,5.80789251 20.4290491,3.01159321 18.7142896,1.2906828 C17.068063,-0.430227602 14.2807403,-0.430227602 12.6349929,1.2906828 Z" id="路径"></path>
                <path d="M8.8431604,15.1247276 L6.34099185,17.7063333 C5.19654089,18.8528064 3.40749756,18.8528064 2.26544285,17.7063333 C1.12099188,16.5584193 1.12099188,14.6943799 2.26544285,13.5493477 L6.34099185,9.39332265 C7.48592207,8.24588894 9.27448615,8.24588894 10.4165409,9.39332265 C10.7026536,9.680061 11.1325416,9.680061 11.4186543,9.39332265 C11.7047671,9.1065843 11.7047671,8.60419181 11.4186543,8.31793375 C9.772907,6.59702335 6.98510496,6.59702335 5.33935763,8.31793375 L1.26141237,12.4739588 C-0.456222583,14.1953495 -0.38433496,16.9882867 1.26141237,18.7096774 C2.9071597,20.4301075 5.69496174,20.4301075 7.34022982,18.7096774 L9.84479463,16.1290323 C10.1309074,15.8413333 10.1309074,15.3399014 9.84479463,15.0531631 C9.53965826,14.8239229 9.11276106,14.8544238 8.8431604,15.1247276 L8.8431604,15.1247276 Z" id="路径"></path>
            </g>
        </g>
    </g>
</svg>