<?xml version="1.0" encoding="UTF-8"?>
<svg width="20px" height="21px" viewBox="0 0 20 21" version="1.1" xmlns="http://www.w3.org/2000/svg" xmlns:xlink="http://www.w3.org/1999/xlink">
    <title>title_icon_04</title>
    <g id="前台" stroke="none" stroke-width="1" fill="none" fill-rule="evenodd">
        <g id="7具体信息" transform="translate(-220.000000, -314.000000)" fill-rule="nonzero" stroke="#383F50" stroke-width="1.5">
            <g id="title_icon_04" transform="translate(220.000000, 314.000000)">
                <path d="M8.86327124,2.75111157 C7.79853899,2.76844089 6.76526827,2.98829111 5.79077955,3.40357305 C4.80931418,3.82218724 3.92683172,4.42446835 3.16997923,5.18893943 C2.41236263,5.95418231 1.81565544,6.8465546 1.40071475,7.83909168 C0.968749759,8.87037791 0.75,9.96382447 0.75,11.0905953 C0.75,12.2175387 0.968785372,13.3111519 1.39855303,14.3400376 C1.81340544,15.3323634 2.41011263,16.2247357 3.16772923,16.9899786 C3.92458172,17.7544497 4.80706418,18.3567308 5.78874314,18.775436 C6.80727172,19.2106894 7.8871691,19.4311907 9,19.4311907 C10.1130047,19.4311907 11.1930704,19.2106537 12.2092205,18.7776176 C13.1906858,18.3590034 14.0731683,17.7567223 14.8300208,16.9922512 C15.5876374,16.2270084 16.1843446,15.3346361 16.5992853,14.342099 C17.0204515,13.336594 17.2389297,12.2719977 17.2246312,11.0678947 L9.02987358,11.0678947 L8.86327124,2.75111157 Z" id="路径"></path>
                <path d="M11.75,0.807946968 L11.75,8.24851305 L19.1940051,8.21842159 C19.0188286,6.32033655 18.1755672,4.52955473 16.8195078,3.17761959 C15.469039,1.829206 13.6861602,0.989424399 11.75,0.807946968 Z" id="路径"></path>
            </g>
        </g>
    </g>
</svg>