<?xml version="1.0" encoding="UTF-8"?>
<svg width="23px" height="14px" viewBox="0 0 23 14" version="1.1" xmlns="http://www.w3.org/2000/svg" xmlns:xlink="http://www.w3.org/1999/xlink">
    <title>title_icon_03</title>
    <g id="前台" stroke="none" stroke-width="1" fill="none" fill-rule="evenodd">
        <g id="7具体信息" transform="translate(-220.000000, -141.000000)" fill-rule="nonzero" stroke="#383F50" stroke-width="1.5">
            <g id="title_icon_03" transform="translate(220.000000, 141.000000)">
                <path d="M11.5,4.75 C10.8786796,4.75 10.3161796,5.00183983 9.90900973,5.40900974 C9.50183982,5.81617966 9.24999999,6.37867966 9.24999999,7 C9.24999999,7.62132034 9.50183982,8.18382034 9.90900973,8.59099026 C10.3161796,8.99816017 10.8786796,9.25 11.5,9.25 C12.1213203,9.25 12.6838203,8.99816017 13.0909902,8.59099026 C13.4981602,8.18382034 13.75,7.62132034 13.75,7 C13.75,6.37867966 13.4981602,5.81617966 13.0909902,5.40900974 C12.6838203,5.00183983 12.1213203,4.75 11.5,4.75 Z" id="路径"></path>
                <path d="M11.5,0.75 C5.61984318,0.75 1.04485986,6.83046799 0.973874891,7.04873913 C1.04485986,7.16953201 5.61984318,13.25 11.5,13.25 C17.3801568,13.25 21.9551401,7.16953201 22.0261251,6.95126087 C21.9551401,6.83046799 17.3801568,0.75 11.5,0.75 Z" id="路径"></path>
            </g>
        </g>
    </g>
</svg>