<?xml version="1.0" encoding="UTF-8"?>
<svg width="16px" height="21px" viewBox="0 0 16 21" version="1.1" xmlns="http://www.w3.org/2000/svg" xmlns:xlink="http://www.w3.org/1999/xlink">
    <title>login_code</title>
    <g id="前台" stroke="none" stroke-width="1" fill="none" fill-rule="evenodd">
        <g id="重置密码" transform="translate(-766.000000, -486.000000)">
            <g id="login_code" transform="translate(767.000000, 488.000000)">
                <path d="M7.01971883,0 C9.68077719,1.35789013 11.8123793,2.11197309 13.4145066,2.26230942 C13.7457162,2.29334529 14,2.59460314 14,2.95587444 L14,9.68698655 C13.4367878,13.7409417 11.1034483,16.5119327 7,18 C2.84355968,16.506343 0.510220159,13.735352 0,9.68700673 L0,2.96959641 C0,2.60313901 0.261376658,2.29943946 0.597785146,2.27496188 C2.25611671,2.15428924 4.39676127,1.39598879 7.01971883,0 L7.01971883,0 Z" id="路径" stroke="#C8CBD1" stroke-width="1.8"></path>
                <path d="M9.99847,5.74209076 L6.12580613,9.19284688 L4.09907642,7.74164474 C3.85906223,7.48135018 3.46942218,7.48135018 3.22878385,7.74164474 C2.98876966,8.0019189 2.98876966,8.42429096 3.22878385,8.68458551 L5.69065985,11.3513507 C5.81096956,11.4811514 5.96808523,11.5463779 6.12580613,11.5463779 C6.28290289,11.5463779 6.44062379,11.481131 6.56095242,11.3513303 L10.8687626,6.68433829 C11.1087768,6.42406412 11.1087768,6.00236492 10.8687626,5.74207037 C10.6281242,5.48114374 10.2384842,5.48114374 9.99847,5.74209076 Z" id="路径" fill="#C8CBD1"></path>
            </g>
        </g>
    </g>
</svg>