<?xml version="1.0" encoding="UTF-8"?>
<svg width="15px" height="7px" viewBox="0 0 15 7" version="1.1" xmlns="http://www.w3.org/2000/svg" xmlns:xlink="http://www.w3.org/1999/xlink">
    <title>login_eyes_status</title>
    <g id="前台" stroke="none" stroke-width="1" fill="none" fill-rule="evenodd">
        <g id="重置密码" transform="translate(-1127.000000, -642.000000)" fill="#6F788F" fill-rule="nonzero">
            <g id="login_eyes_status" transform="translate(1127.000000, 642.000000)">
                <path d="M14.9064117,0.866470459 C15.0673722,0.624363819 15.0137129,0.301549204 14.7991105,0.113236357 C14.5576871,-0.0750764898 14.2357835,-0.021265411 14.0480021,0.220841229 C14.0211639,0.247738125 11.0435685,3.77181928 7.5025772,3.77181928 C4.06893879,3.77181928 0.957169504,0.220841229 0.930348513,0.193944332 C0.742549866,-0.021265411 0.393842511,-0.0481623074 0.179222873,0.140133253 C-0.0353795278,0.3284461 -0.0622005186,0.678157612 0.125563654,0.893384641 C0.179222873,0.97407533 0.823030075,1.70041254 1.84238286,2.50745772 L0.474271009,3.93323523 C0.259668608,4.14844497 0.286506836,4.49815648 0.501109237,4.68646933 C0.554768456,4.7940742 0.688890647,4.84788528 0.823030075,4.84788528 C0.957135029,4.84788528 1.09127446,4.7940742 1.19857566,4.68646933 L2.67397147,3.15310423 C3.37143789,3.6373348 4.20302651,4.09466847 5.11509533,4.41746579 L4.5517511,6.32747387 C4.47128813,6.62337431 4.63224854,6.91929202 4.92731392,7 L5.0882571,7 C5.32968049,7 5.54430013,6.83858405 5.59794211,6.59647741 L6.1612691,4.68646933 C6.59047391,4.76717731 7.04651693,4.82098838 7.50254273,4.82098838 C7.95856852,4.82098838 8.41461155,4.76717731 8.84383359,4.68646933 L9.40714334,6.56958051 C9.4608198,6.81168715 9.70224319,6.97308582 9.91684559,6.97308582 C9.97050481,6.97308582 10.0241468,6.97308582 10.050985,6.94618892 C10.3460504,6.86546366 10.5070108,6.56958051 10.4265478,6.27366279 L9.86320361,4.39055161 C10.7752897,4.06771971 11.606861,3.61040333 12.3043275,3.12619005 L13.7529023,4.63265825 C13.8602035,4.74026312 13.9943257,4.7940742 14.1284479,4.7940742 C14.2625701,4.7940742 14.3967095,4.74026312 14.5039935,4.63267554 C14.7185959,4.41744851 14.7185959,4.09465118 14.5308317,3.87942415 L13.1627198,2.45366392 C14.2625873,1.64660146 14.906429,0.866470459 14.906429,0.866470459 L14.9064117,0.866470459 Z" id="路径"></path>
            </g>
        </g>
    </g>
</svg>