<?xml version="1.0" encoding="UTF-8"?>
<svg width="18px" height="12px" viewBox="0 0 18 12" version="1.1" xmlns="http://www.w3.org/2000/svg" xmlns:xlink="http://www.w3.org/1999/xlink">
    <title>login_eyes</title>
    <g id="前台" stroke="none" stroke-width="1" fill="none" fill-rule="evenodd">
        <g id="重置密码" transform="translate(-1126.000000, -565.000000)" fill-rule="nonzero" stroke="#6F788F">
            <g id="login_eyes" transform="translate(1128.000000, 566.000000)">
                <path d="M7,-0.5 C5.32873347,-0.5 3.93437828,0.0961036734 2.81960674,0.896040726 C0.636800942,2.46237713 -0.453463084,4.81241076 -0.452715811,5.23530163 C-0.452715811,5.23530163 2.0508045,10.5 7,10.5 C8.67094017,10.5 10.0649725,9.9066672 11.179508,9.11057044 C13.3627034,7.55114514 14.4530916,5.21144273 14.4530916,4.78855727 C14.4530916,4.78855727 11.9489247,-0.5 7,-0.5 Z" id="路径"></path>
                <path d="M7,3 C5.8955,3 5,3.8955 5,5 C5,6.10462499 5.8955,7 7,7 C8.10462499,7 9,6.10462501 9,5 C9,3.8955 8.10462501,3 7,3 Z" id="路径"></path>
            </g>
        </g>
    </g>
</svg>