<?xml version="1.0" encoding="UTF-8"?>
<svg width="15px" height="14px" viewBox="0 0 15 14" version="1.1" xmlns="http://www.w3.org/2000/svg" xmlns:xlink="http://www.w3.org/1999/xlink">
    <title>quit</title>
    <g id="控件" stroke="none" stroke-width="1" fill="none" fill-rule="evenodd">
        <g id="顶部导航" transform="translate(-1848.000000, -14.000000)" fill="#FFFFFF" fill-rule="nonzero">
            <g id="编组-5">
                <g transform="translate(1848.000000, 11.000000)">
                    <path d="M7.50450009,3 C7.918724,3 8.25451884,3.32557039 8.25451884,3.72718182 L8.25451884,10.9990001 C8.25445544,11.4005681 7.91867918,11.7260706 7.5045001,11.7260706 C7.09032102,11.7260706 6.75454476,11.4005681 6.75448135,10.9990001 L6.75448135,3.72718182 C6.75448135,3.32557039 7.09027618,3 7.50450009,3 Z M2.19661741,4.58718795 C2.38606222,4.40351143 2.66218406,4.33177758 2.9209705,4.39900785 C3.17975694,4.46623811 3.38189216,4.66221862 3.45123377,4.91312541 C3.52057539,5.1640322 3.44658875,5.43174656 3.25714393,5.61542307 C0.914333208,7.88741748 0.914622326,11.5705846 3.25778971,13.8422332 C5.60095709,16.1138818 9.39979289,16.1138818 11.7429603,13.8422332 C14.0861277,11.5705846 14.0864168,7.88741748 11.7436061,5.61542307 C11.4593699,5.33009226 11.4634349,4.87654472 11.7527424,4.59604613 C12.04205,4.31554755 12.509841,4.31160631 12.8041326,4.58718795 C15.7322058,7.42756018 15.7322058,12.0313484 12.8026325,14.8702662 C9.87380933,17.7099113 5.12544063,17.7099113 2.19661741,14.8702662 C-0.732205812,12.0306212 -0.732205795,7.4275602 2.19661741,4.58718795 Z" id="quit"></path>
                </g>
            </g>
        </g>
    </g>
</svg>