<?xml version="1.0" encoding="UTF-8"?>
<svg width="15px" height="15px" viewBox="0 0 15 15" version="1.1" xmlns="http://www.w3.org/2000/svg" xmlns:xlink="http://www.w3.org/1999/xlink">
    <title>remind</title>
    <g id="前台" stroke="none" stroke-width="1" fill="none" fill-rule="evenodd">
        <g id="重置密码" transform="translate(-880.000000, -105.000000)">
            <g id="remind" transform="translate(880.000000, 105.000000)">
                <circle id="椭圆形备份-9" fill="#1AC27D" cx="7.5" cy="7.5" r="7.5"></circle>
                <path d="M5,7 L7,9 C7.27614237,9.27614237 7.27614237,9.72385763 7,10 C6.72385763,10.2761424 6.27614237,10.2761424 6,10 L4,8 C3.72385763,7.72385763 3.72385763,7.27614237 4,7 C4.27614237,6.72385763 4.72385763,6.72385763 5,7 Z" id="矩形备份-106" fill="#FFFFFF"></path>
                <path d="M11,6 L7,10 C6.72385763,10.2761424 6.27614237,10.2761424 6,10 C5.72385763,9.72385763 5.72385763,9.27614237 6,9 L10,5 C10.2761424,4.72385763 10.7238576,4.72385763 11,5 C11.2761424,5.27614237 11.2761424,5.72385763 11,6 Z" id="矩形备份-107" fill="#FFFFFF"></path>
            </g>
        </g>
    </g>
</svg>