<?xml version="1.0" encoding="UTF-8"?>
<svg width="16px" height="17px" viewBox="0 0 16 17" version="1.1" xmlns="http://www.w3.org/2000/svg" xmlns:xlink="http://www.w3.org/1999/xlink">
    <title>nav_05</title>
    <defs>
        <path d="M7.99942853,9.14547014 L10.2853061,11.4318377 L10.287592,16 L5.71583684,16 L5.71583684,11.4306945 L8.00171441,9.14432696 L7.99942853,9.14547014 Z M16,5.71363246 L16,10.2863675 L11.4305307,10.2863675 L9.14465319,8.00000001 L11.4305307,5.71363246 L16,5.71363246 Z M4.57061219,5.71363246 L6.85648975,8.00000001 L4.57061219,10.2863675 L0,10.2863675 L0,5.71363246 L4.57061219,5.71363246 Z M10.2853061,0 L10.2853061,4.56816234 L7.99942853,6.85452987 L5.71355097,4.56816234 L5.71355097,0 L10.2853061,0 L10.2853061,0 Z" id="path-1"></path>
        <filter x="-3.1%" y="-3.1%" width="106.2%" height="112.5%" filterUnits="objectBoundingBox" id="filter-2">
            <feOffset dx="0" dy="1" in="SourceAlpha" result="shadowOffsetOuter1"></feOffset>
            <feMorphology radius="1" operator="erode" in="SourceAlpha" result="shadowInner"></feMorphology>
            <feOffset dx="0" dy="1" in="shadowInner" result="shadowInner"></feOffset>
            <feComposite in="shadowOffsetOuter1" in2="shadowInner" operator="out" result="shadowOffsetOuter1"></feComposite>
            <feColorMatrix values="0 0 0 0 0   0 0 0 0 0   0 0 0 0 0  0 0 0 0.5 0" type="matrix" in="shadowOffsetOuter1"></feColorMatrix>
        </filter>
    </defs>
    <g id="控件" stroke="none" stroke-width="1" fill="none" fill-rule="evenodd" opacity="1">
        <g id="导航" transform="translate(-29.000000, -412.000000)" fill-rule="nonzero">
            <g id="nav_05" transform="translate(29.000000, 412.000000)">
                <g id="形状">
                    <use fill="black" fill-opacity="1" filter="url(#filter-2)" xlink:href="#path-1"></use>
                    <path stroke="#FFFFFF" stroke-width="1" d="M8,9.85318903 L6.21583684,11.6377672 L6.21583684,15.5 L9.78734171,15.5 L9.7854097,11.639014 L8,9.85318903 Z M15.5,6.21363246 L11.6376689,6.21363246 L9.85168421,8.00000001 L11.6376689,9.78636754 L15.5,9.78636754 L15.5,6.21363246 Z M4.36347402,6.21363246 L0.5,6.21363246 L0.5,9.78636754 L4.36347402,9.78636754 L6.14945873,8.00000001 L4.36347402,6.21363246 Z M9.78530609,0.5 L6.21355097,0.5 L6.21355097,4.36108695 L7.99942853,6.1473473 L9.78530609,4.36108695 L9.78530609,0.5 Z" stroke-linejoin="square"></path>
                </g>
            </g>
        </g>
    </g>
</svg>