<?xml version="1.0" encoding="UTF-8"?>
<svg width="18px" height="16px" viewBox="0 0 18 16" version="1.1" xmlns="http://www.w3.org/2000/svg" xmlns:xlink="http://www.w3.org/1999/xlink">
    <title>nav_01</title>
    <defs>
        <path d="M16.5938467,2.89343685 C16.0800514,2.89424583 15.6076171,3.16009704 15.3615848,3.58686293 C15.1155525,4.01362881 15.1350873,4.53337411 15.4125378,4.94252703 L12.3748863,9.2961784 C12.2151418,9.25596606 12.0507722,9.23451545 11.8854869,9.23231066 C11.7278665,9.23310594 11.5709866,9.25277746 11.4185886,9.29085608 L7.74528044,3.19148633 C8.11163137,2.8402784 8.31419989,2.36496528 8.3078085,1.87155291 C8.31203813,1.00036215 7.67750722,0.242752574 6.78012627,0.0475492795 C5.88274533,-0.147654015 4.9622199,0.271691056 4.56389013,1.05715496 C4.16556036,1.84261887 4.39582683,2.78439098 5.11827446,3.32454415 L1.33246069,12.3405409 C0.667245771,12.3736882 0.117864218,12.8438589 0.0164848899,13.4667769 C-0.0848944378,14.089695 0.289542799,14.6944572 0.913403139,14.9154102 C1.53726348,15.1363633 2.23938517,14.9128867 2.59524911,14.3800996 C2.95111305,13.8473125 2.86308474,13.1513899 2.38438813,12.7131028 L6.18707775,3.71839523 C6.2451668,3.72123865 6.30337239,3.72123865 6.36146144,3.71839523 C6.49547351,3.71679442 6.62909407,3.70433009 6.76085636,3.68113906 L10.4622909,9.8284096 C9.74332002,10.5688164 9.77754001,11.716081 10.5395004,12.4169453 C11.3014607,13.1178096 12.5145153,13.1178096 13.2764757,12.4169453 C14.038436,11.716081 14.072656,10.5688164 13.3536851,9.8284096 L16.3463343,5.51733674 C16.4287449,5.52259448 16.5114361,5.52259448 16.5938467,5.51733674 C17.3704707,5.51724959 18,4.92155504 18,4.1867587 C18,3.45196237 17.3704707,2.85626782 16.5938467,2.85618066 L16.5938467,2.89343685 Z" id="path-1"></path>
        <filter x="-2.8%" y="-3.3%" width="105.6%" height="113.3%" filterUnits="objectBoundingBox" id="filter-2">
            <feOffset dx="0" dy="1" in="SourceAlpha" result="shadowOffsetOuter1"></feOffset>
            <feColorMatrix values="0 0 0 0 0.285877464   0 0 0 0 0.325232963   0 0 0 0 0.424649004  0 0 0 0.5 0" type="matrix" in="shadowOffsetOuter1"></feColorMatrix>
        </filter>
    </defs>
    <g id="控件" stroke="none" stroke-width="1" fill="none" fill-rule="evenodd">
        <g id="导航" transform="translate(-28.000000, -92.000000)" fill-rule="nonzero">
            <g id="nav_01" transform="translate(28.000000, 92.000000)">
                <g id="路径">
                    <use fill="black" fill-opacity="1" filter="url(#filter-2)" xlink:href="#path-1"></use>
                    <use fill="#FFFFFF" xlink:href="#path-1"></use>
                </g>
            </g>
        </g>
    </g>
</svg>