<?xml version="1.0" encoding="UTF-8"?>
<svg width="15px" height="17px" viewBox="0 0 15 17" version="1.1" xmlns="http://www.w3.org/2000/svg" xmlns:xlink="http://www.w3.org/1999/xlink">
    <title>nav_04</title>
    <defs>
        <path d="M35.7157122,284.060112 L40.8319778,287.1569 C41.0332039,287.056498 41.2600761,287 41.5,287 C42.3276596,287 43,287.67234 43,288.5 C43,289.15187 42.582931,289.707392 42.0013947,289.913964 L42,295.475421 C42,295.63572 41.9179148,295.786001 41.7842878,295.86615 L36.9738685,298.77988 C36.8425536,299.474056 36.2320267,300 35.5,300 C34.7676256,300 34.1568664,299.473556 34.0259447,298.778891 L29.2157122,295.86615 C29.0820852,295.786001 29,295.63572 29,295.475421 L28.9996001,289.914317 C28.4175448,289.708026 28,289.152242 28,288.5 C28,287.67234 28.6723404,287 29.5,287 C29.7399239,287 29.9667961,287.056498 30.1680222,287.1569 L35.2861968,284.060112 C35.4198238,283.979963 35.5820852,283.979963 35.7157122,284.060112 Z M35.5,297.959574 C35.2,297.959574 34.9574468,298.202128 34.9574468,298.5 C34.9574468,298.797872 35.2,299.040426 35.5,299.040426 C35.8,299.040426 36.0425532,298.797872 36.0425532,298.5 C36.0425532,298.202128 35.8,297.959574 35.5,297.959574 Z M35.5,284.971814 L30.8265067,287.799706 C30.9372557,288.008816 31,288.247161 31,288.5 C31,289.203439 30.5143329,289.794683 29.8604175,289.956313 L29.8590308,295.212931 L34.1639388,297.818052 C34.4124805,297.332665 34.9178153,297 35.5,297 C36.0825938,297 36.5882297,297.333133 36.8365848,297.819076 L41.1409692,295.214935 L41.1395825,289.956313 C40.4856671,289.794683 40,289.203439 40,288.5 C40,288.247161 40.0627443,288.008816 40.1734933,287.799706 L35.5,284.971814 Z M35.5,287 L39.5,289.24902 L39.5,293.74902 L35.5,296 L31.5,293.75098 L31.5,289.25098 L35.5,287 Z M35.5,288.01872 L32.4040683,289.76034 L32.4040683,293.24162 L35.5,294.983239 L38.5959317,293.24162 L38.5959317,289.76034 L35.5,288.01872 Z M41.5,287.959574 C41.2,287.959574 40.9574468,288.202128 40.9574468,288.5 C40.9574468,288.797872 41.2,289.040426 41.5,289.040426 C41.8,289.040426 42.0425532,288.797872 42.0425532,288.5 C42.0425532,288.202128 41.8,287.959574 41.5,287.959574 Z M29.5,287.959574 C29.2,287.959574 28.9574468,288.202128 28.9574468,288.5 C28.9574468,288.797872 29.2,289.040426 29.5,289.040426 C29.8,289.040426 30.0425532,288.797872 30.0425532,288.5 C30.0425532,288.202128 29.8,287.959574 29.5,287.959574 Z" id="path-1"></path>
        <filter x="-3.3%" y="-3.1%" width="106.7%" height="112.5%" filterUnits="objectBoundingBox" id="filter-2">
            <feOffset dx="0" dy="1" in="SourceAlpha" result="shadowOffsetOuter1"></feOffset>
            <feColorMatrix values="0 0 0 0 0   0 0 0 0 0   0 0 0 0 0  0 0 0 0.5 0" type="matrix" in="shadowOffsetOuter1"></feColorMatrix>
        </filter>
    </defs>
    <g id="æ§ä»¶" stroke="none" stroke-width="1" fill="none" fill-rule="evenodd" opacity="0.699999988">
        <g id="å¯¼èˆª" transform="translate(-28.000000, -284.000000)" fill-rule="nonzero">
            <g id="nav_04">
                <use fill="black" fill-opacity="1" filter="url(#filter-2)" xlink:href="#path-1"></use>
                <use fill="#FFFFFF" xlink:href="#path-1"></use>
            </g>
        </g>
    </g>
</svg>