<?xml version="1.0" encoding="UTF-8"?>
<svg width="16px" height="17px" viewBox="0 0 16 17" version="1.1" xmlns="http://www.w3.org/2000/svg" xmlns:xlink="http://www.w3.org/1999/xlink">
    <title>nav_02</title>
    <defs>
        <path d="M13.86,8.405 L7.595,8.405 L7.595,2.14 C7.595,2.063 7.532,2 7.455,2 L7,2 C6.055,2 5.138,2.1855 4.27525,2.5495 C3.44225,2.90125 2.69325,3.407 2.051,4.04925 C1.40875,4.6915 0.903,5.4405 0.55125,6.2735 C0.1855,7.138 0,8.055 0,9 C0,9.945 0.1855,10.862 0.5495,11.72475 C0.90125,12.55775 1.407,13.30675 2.04925,13.949 C2.6915,14.59125 3.4405,15.097 4.2735,15.44875 C5.138,15.8145 6.055,16 7,16 C7.945,16 8.862,15.8145 9.72475,15.4505 C10.55775,15.09875 11.30675,14.593 11.949,13.95075 C12.59125,13.3085 13.097,12.5595 13.44875,11.7265 C13.8145,10.862 14,9.945 14,9 L14,8.545 C14,8.468 13.937,8.405 13.86,8.405 Z" id="path-1"></path>
        <filter x="-3.6%" y="-3.6%" width="107.1%" height="114.3%" filterUnits="objectBoundingBox" id="filter-2">
            <feOffset dx="0" dy="1" in="SourceAlpha" result="shadowOffsetOuter1"></feOffset>
            <feMorphology radius="1" operator="erode" in="SourceAlpha" result="shadowInner"></feMorphology>
            <feOffset dx="0" dy="1" in="shadowInner" result="shadowInner"></feOffset>
            <feComposite in="shadowOffsetOuter1" in2="shadowInner" operator="out" result="shadowOffsetOuter1"></feComposite>
            <feColorMatrix values="0 0 0 0 0   0 0 0 0 0   0 0 0 0 0  0 0 0 0.5 0" type="matrix" in="shadowOffsetOuter1"></feColorMatrix>
        </filter>
        <path d="M15.9994814,6.83201276 L15.9539847,6.33855023 C15.8052458,4.7269226 15.0895488,3.20628806 13.9381341,2.05837523 C12.7867194,0.908712523 11.2643322,0.194766734 9.64745203,0.0460280278 L9.15223872,0.000531482394 C9.06999481,-0.00646798612 9,0.0565272305 9,0.138770986 L9,6.86001063 C9,6.93700478 9.06299533,7 9.13998963,7 L15.8594917,6.98250133 C15.9417356,6.98250133 16.0064808,6.91250664 15.9994814,6.83201276 Z" id="path-3"></path>
        <filter x="-7.1%" y="-7.1%" width="114.3%" height="128.7%" filterUnits="objectBoundingBox" id="filter-4">
            <feOffset dx="0" dy="1" in="SourceAlpha" result="shadowOffsetOuter1"></feOffset>
            <feMorphology radius="1" operator="erode" in="SourceAlpha" result="shadowInner"></feMorphology>
            <feOffset dx="0" dy="1" in="shadowInner" result="shadowInner"></feOffset>
            <feComposite in="shadowOffsetOuter1" in2="shadowInner" operator="out" result="shadowOffsetOuter1"></feComposite>
            <feColorMatrix values="0 0 0 0 0   0 0 0 0 0   0 0 0 0 0  0 0 0 0.5 0" type="matrix" in="shadowOffsetOuter1"></feColorMatrix>
        </filter>
    </defs>
    <g id="控件" stroke="none" stroke-width="1" fill="none" fill-rule="evenodd" opacity="1">
        <g id="导航" transform="translate(-28.000000, -156.000000)" fill-rule="nonzero">
            <g id="nav_02" transform="translate(28.000000, 156.000000)">
                <g id="路径">
                    <use fill="black" fill-opacity="1" filter="url(#filter-2)" xlink:href="#path-1"></use>
                    <path stroke="#FFFFFF" stroke-width="1" d="M6.54573613,2.51551014 C5.82846237,2.56472069 5.13182363,2.73078561 4.46961265,3.01017685 C3.6962795,3.33673142 3.00089508,3.80646171 2.40455339,4.40280339 C1.80821171,4.99914508 1.33848142,5.6945295 1.01186707,6.46800427 C0.672118015,7.2710478 0.5,8.12254145 0.5,9 C0.5,9.87757399 0.672141804,10.7291793 1.01017685,11.5303874 C1.33673142,12.3037205 1.80646171,12.9991049 2.40280339,13.5954466 C2.99914508,14.1917883 3.6945295,14.6615186 4.46800427,14.9881329 C5.2710478,15.327882 6.12254145,15.5 7,15.5 C7.87757399,15.5 8.72917928,15.3278582 9.53038735,14.9898231 C10.3037205,14.6632686 10.9991049,14.1935383 11.5954466,13.5971966 C12.1917883,13.0008549 12.6615186,12.3054705 12.9881329,11.5319957 C13.2899696,10.8185634 13.4532011,10.0660409 13.394559,8.905 L7.1392953,8.905 L6.54573613,2.51551014 Z" stroke-linejoin="square"></path>
                </g>
                <g id="路径">
                    <use fill="black" fill-opacity="1" filter="url(#filter-4)" xlink:href="#path-3"></use>
                    <path stroke="#FFFFFF" stroke-width="1" d="M9.5,0.543715153 L9.5,6.49906078 L15.4560964,6.3844549 C15.3180637,4.88883236 14.653647,3.47774431 13.5851196,2.41246666 C12.5203336,1.34930101 11.1142889,0.687456687 9.5,0.543715153 Z" stroke-linejoin="square"></path>
                </g>
            </g>
        </g>
    </g>
</svg>