<?xml version="1.0" encoding="UTF-8"?>
<svg width="15px" height="16px" viewBox="0 0 15 16" version="1.1" xmlns="http://www.w3.org/2000/svg" xmlns:xlink="http://www.w3.org/1999/xlink">
    <title>nav_07</title>
    <defs>
        <path d="M39.0203293,555 C38.8898739,555 38.7630932,554.939795 38.684085,554.835322 L38.6822476,554.83178 L35.9481958,550.629833 C35.9463583,550.628062 35.944521,550.626292 35.9426836,550.626292 L30.369848,550.233189 L30.3643358,550.233189 C30.1934575,550.21194 30.0519777,550.08976 30.0115549,549.926852 C29.9711321,549.767487 30.0391159,549.597496 30.1787583,549.503647 L42.3478615,542.071885 L42.3496989,542.070114 C42.4599429,541.999285 42.597748,541.979807 42.7208538,542.022304 C42.9248053,542.094904 43.0332119,542.289685 42.9909517,542.482695 L39.4263948,554.681268 C39.3914842,554.835322 39.266541,554.957502 39.1066871,554.991146 C39.0772887,554.996459 39.0478903,555 39.0203293,555 Z" id="path-1"></path>
        <filter x="-7.7%" y="-7.7%" width="115.3%" height="123.1%" filterUnits="objectBoundingBox" id="filter-2">
            <feMorphology radius="0.5" operator="dilate" in="SourceAlpha" result="shadowSpreadOuter1"></feMorphology>
            <feOffset dx="0" dy="1" in="shadowSpreadOuter1" result="shadowOffsetOuter1"></feOffset>
            <feMorphology radius="1" operator="erode" in="SourceAlpha" result="shadowInner"></feMorphology>
            <feOffset dx="0" dy="1" in="shadowInner" result="shadowInner"></feOffset>
            <feComposite in="shadowOffsetOuter1" in2="shadowInner" operator="out" result="shadowOffsetOuter1"></feComposite>
            <feColorMatrix values="0 0 0 0 0   0 0 0 0 0   0 0 0 0 0  0 0 0 0.5 0" type="matrix" in="shadowOffsetOuter1"></feColorMatrix>
        </filter>
    </defs>
    <g id="æ§ä»¶" stroke="none" stroke-width="1" fill="none" fill-rule="evenodd" opacity="0.699999988" stroke-linecap="round" stroke-linejoin="round">
        <g id="å¯¼èˆª" transform="translate(-29.000000, -541.000000)" fill-rule="nonzero">
            <g id="nav_07">
                <use fill="black" fill-opacity="1" filter="url(#filter-2)" xlink:href="#path-1"></use>
                <use stroke="#FFFFFF" stroke-width="1" xlink:href="#path-1"></use>
            </g>
        </g>
    </g>
</svg>