<?xml version="1.0" encoding="UTF-8"?>
<svg width="10px" height="10px" viewBox="0 0 10 10" version="1.1" xmlns="http://www.w3.org/2000/svg" xmlns:xlink="http://www.w3.org/1999/xlink">
    <title>nav_09</title>
    <g id="控件" stroke="none" stroke-width="1" fill="none" fill-rule="evenodd">
        <g id="图标/折叠" transform="translate(-9.000000, -9.000000)" fill="#6F788F" fill-rule="nonzero">
            <path d="M18.8242127,9.97604872 L14.4496914,14 L18.8242127,18.0239513 C19.0586324,18.2472708 19.0585904,18.6093033 18.8241189,18.8325735 C18.5896474,19.0558437 18.209536,19.0558037 17.9751163,18.8324842 L13.1759531,14.4042665 C13.063299,14.2970897 13,14.1516552 13,14 C13,13.8483448 13.063299,13.7029103 13.1759531,13.5957335 L17.9751163,9.16751579 C18.209536,8.94419628 18.5896474,8.9441563 18.8241189,9.16742651 C19.0585904,9.39069671 19.0586324,9.75272921 18.8242127,9.97604872 Z M9.50058565,8.99999754 C9.36787596,8.99981174 9.2405485,9.06367043 9.14665361,9.17750836 C9.05275871,9.29134629 9,9.44582375 9,9.60690921 L9,18.3930912 C9,18.6099188 9.09529945,18.8102758 9.24999999,18.9186896 C9.40470053,19.0271035 9.59529947,19.0271035 9.75000001,18.9186896 C9.90470055,18.8102758 10,18.6099188 10,18.3930912 L10,9.60690921 C10,9.27200016 9.77649929,9.0003927 9.50058565,8.99999754 Z" id="nav_09"></path>
        </g>
    </g>
</svg>